<?xml version="1.0" encoding="UTF-8" standalone="no"?>
<!-- Created with Inkscape (http://www.inkscape.org/) -->

<svg
   width="132.94363mm"
   height="44.221172mm"
   viewBox="0 0 132.94363 44.221172"
   version="1.1"
   id="svg1"
   xml:space="preserve"
   xmlns="http://www.w3.org/2000/svg"
   xmlns:svg="http://www.w3.org/2000/svg"><defs
     id="defs1" /><g
     id="layer1"
     transform="translate(-63.215005,-342.87157)"><rect
       style="fill:#1a1a1a;fill-opacity:1;stroke-width:1.05833;stroke-linecap:round;stroke-linejoin:round"
       id="rect18"
       width="132.94365"
       height="44.221172"
       x="63.215004"
       y="342.87158" /><g
       id="g21"
       transform="matrix(0.65324791,0,0,0.65324791,122.46257,232.03031)"
       style="stroke-width:1.53081"><path
         style="fill:#ffc9c9;fill-opacity:1;stroke-width:1.6201;stroke-linecap:round;stroke-linejoin:round"
         d="m -49.933775,205.82288 c -0.368824,-0.0263 -0.749162,0.0535 -1.093644,0.25205 -0.918676,0.52931 -1.233951,1.70331 -0.704532,2.62194 0.529325,0.91867 1.702839,1.23394 2.62146,0.70453 0.918694,-0.52933 1.234428,-1.70329 0.705002,-2.62193 -0.330829,-0.57418 -0.913581,-0.91265 -1.528286,-0.95659 z"
         id="path18" /><path
         style="fill:#fff49f;fill-opacity:1;stroke-width:1.6201;stroke-linecap:round;stroke-linejoin:round"
         d="m -57.928175,191.94908 c -0.368771,-0.0263 -0.749216,0.0536 -1.093644,0.25207 -0.918522,0.5292 -1.23411,1.70287 -0.705002,2.62145 0.529318,0.91868 1.70284,1.23442 2.621461,0.705 0.918685,-0.52933 1.234418,-1.70329 0.705002,-2.62192 -0.330915,-0.57401 -0.9132,-0.91272 -1.527817,-0.9566 z"
         id="path19" /><path
         style="fill:#ffc9c9;fill-opacity:1;stroke-width:1.6201;stroke-linecap:round;stroke-linejoin:round"
         d="m -35.63942,182.92488 -17.2655,9.94935 c 0.306066,1.59706 -0.144377,3.24592 -1.220377,4.46516 l 3.029349,5.25747 c 2.207119,-0.44249 4.45082,0.57027 5.578994,2.5182 1.448666,2.51401 0.585322,5.72663 -1.928663,7.17535 -1.939135,1.11112 -4.369254,0.87381 -6.056818,-0.59141 l -25.964902,14.96227 h 13.651253 l 30.176664,-8.00455 z"
         id="path20" /><path
         style="fill:#fff49f;fill-opacity:1;stroke-width:1.78367;stroke-linecap:round;stroke-linejoin:round"
         d="m -68.520365,107.77175 v 43.58542 l 29.390454,-16.93643 c -0.32655,-1.71958 0.143166,-3.49459 1.277441,-4.82762 l -3.373437,-5.8539 c -2.402934,0.44126 -4.824149,-0.67522 -6.049244,-2.78898 -1.594916,-2.76784 -0.643899,-6.30428 2.123902,-7.89926 2.134754,-1.22322 4.809489,-0.96192 6.667293,0.65112 l 18.181319,-10.47688 -43.671198,0 a 4.5465296,4.5465296 135 0 0 -4.54653,4.54653 z m 9.944095,17.8118 c 3.194482,3e-5 5.784114,2.58966 5.784144,5.78414 -2.4e-5,3.19449 -2.589658,5.78412 -5.784144,5.78415 -3.194485,-3e-5 -5.784119,-2.58966 -5.784143,-5.78415 3e-5,-3.19448 2.589662,-5.78411 5.784143,-5.78414 z"
         id="path21"
         transform="matrix(0.90829662,0,0,0.90829662,-19.675967,86.628311)" /></g><g
       id="text22"
       style="font-weight:500;font-size:17.6582px;font-family:'Ubuntu Nerd Font';-inkscape-font-specification:'Ubuntu Nerd Font Medium';text-align:center;letter-spacing:0px;text-anchor:middle;fill:#ffc9c9;stroke-width:1.05833;stroke-linecap:round;stroke-linejoin:round"
       aria-label="mechaway"><path
         d="m 110.89773,365.32649 q 0,-1.44797 -0.37082,-2.08367 -0.35316,-0.65335 -1.34202,-0.65335 -0.35316,0 -0.77696,0.053 -0.4238,0.053 -0.6357,0.0883 v 7.45176 h -2.13664 v -8.93505 q 0.61804,-0.17659 1.6069,-0.33551 1.00651,-0.15892 2.11898,-0.15892 0.95354,0 1.55392,0.24721 0.61804,0.24722 1.02418,0.65335 0.19424,-0.14126 0.49443,-0.30018 0.30019,-0.15893 0.67101,-0.28254 0.37082,-0.14126 0.77696,-0.22955 0.4238,-0.0883 0.84759,-0.0883 1.07715,0 1.76582,0.31784 0.70633,0.30019 1.09481,0.86526 0.40614,0.5474 0.54741,1.34202 0.15892,0.77696 0.15892,1.71284 v 5.19152 h -2.13664 v -4.85601 q 0,-1.44797 -0.35317,-2.08367 -0.35316,-0.65335 -1.35968,-0.65335 -0.51209,0 -0.9712,0.17658 -0.45911,0.15893 -0.68867,0.31785 0.14127,0.44145 0.19424,0.93588 0.053,0.49443 0.053,1.0595 v 5.10322 h -2.13665 z m 9.50011,0.28253 q 0,-1.21841 0.35317,-2.13664 0.37082,-0.91823 0.9712,-1.51861 0.60038,-0.61803 1.37734,-0.91822 0.77696,-0.31785 1.58923,-0.31785 1.90709,0 2.96658,1.1831 1.07715,1.1831 1.07715,3.53164 0,0.17658 -0.0177,0.40614 0,0.2119 -0.0177,0.38848 h -6.09208 q 0.0883,1.11247 0.77696,1.7305 0.70633,0.60038 2.03069,0.60038 0.77696,0 1.41266,-0.14126 0.65335,-0.14127 1.02417,-0.30019 l 0.28253,1.74816 q -0.17658,0.0883 -0.49443,0.19424 -0.30019,0.0883 -0.70632,0.15892 -0.38848,0.0883 -0.8476,0.14127 -0.45911,0.053 -0.93588,0.053 -1.21842,0 -2.11899,-0.35316 -0.90056,-0.37082 -1.48328,-1.00652 -0.58273,-0.65335 -0.86526,-1.5186 -0.28253,-0.88291 -0.28253,-1.92475 z m 6.19803,-0.95354 q 0,-0.44146 -0.12361,-0.82994 -0.1236,-0.40614 -0.37082,-0.68867 -0.22956,-0.30019 -0.58272,-0.45911 -0.33551,-0.17658 -0.81228,-0.17658 -0.49443,0 -0.86525,0.19424 -0.37082,0.17658 -0.63569,0.47677 -0.24722,0.30019 -0.38848,0.68867 -0.14127,0.38848 -0.19424,0.79462 z m 3.88479,0.91823 q 0,-1.02418 0.31785,-1.90709 0.31784,-0.90057 0.90056,-1.55392 0.60038,-0.65336 1.44798,-1.02418 0.84759,-0.37082 1.90708,-0.37082 1.30671,0 2.47215,0.47677 l -0.45911,1.74816 q -0.37083,-0.15892 -0.8476,-0.26487 -0.45911,-0.10595 -0.98886,-0.10595 -1.25373,0 -1.90708,0.79462 -0.65336,0.77696 -0.65336,2.20728 0,1.37733 0.61804,2.18961 0.61804,0.79462 2.08367,0.79462 0.5474,0 1.07715,-0.10595 0.52975,-0.10595 0.91823,-0.26487 l 0.30019,1.76582 q -0.35317,0.17658 -1.07715,0.31785 -0.70633,0.14126 -1.46564,0.14126 -1.18309,0 -2.066,-0.35316 -0.86526,-0.37082 -1.44798,-1.00652 -0.56506,-0.65335 -0.84759,-1.53626 -0.28253,-0.90057 -0.28253,-1.9424 z m 8.84676,4.60879 v -13.3496 l 2.13664,-0.35317 v 4.57348 q 0.35316,-0.12361 0.81228,-0.2119 0.47677,-0.0883 0.93588,-0.0883 1.11247,0 1.83645,0.31784 0.74165,0.30019 1.1831,0.86526 0.44146,0.5474 0.61804,1.32436 0.19424,0.77696 0.19424,1.7305 v 5.19152 h -2.13664 v -4.85601 q 0,-0.74164 -0.10595,-1.25373 -0.0883,-0.52975 -0.31785,-0.8476 -0.2119,-0.3355 -0.58272,-0.47677 -0.37082,-0.15892 -0.91823,-0.15892 -0.42379,0 -0.86525,0.0883 -0.44145,0.0883 -0.65335,0.15892 v 7.34582 z"
         id="path27" /><path
         d="m 152.85361,368.68155 q 0.98886,0 1.50095,-0.10595 v -2.3662 q -0.17658,-0.053 -0.51209,-0.10595 -0.3355,-0.053 -0.74164,-0.053 -0.35317,0 -0.72399,0.053 -0.35316,0.053 -0.65335,0.19424 -0.28253,0.14127 -0.45911,0.40614 -0.17659,0.24721 -0.17659,0.6357 0,0.7593 0.47678,1.05949 0.47677,0.28253 1.28904,0.28253 z m -0.17658,-7.96385 q 1.05949,0 1.78348,0.26487 0.72399,0.26488 1.14778,0.74165 0.44146,0.47677 0.61804,1.16544 0.19424,0.67101 0.19424,1.48329 v 5.59765 q -0.49443,0.10595 -1.50095,0.24721 -0.98886,0.15893 -2.24259,0.15893 -0.82993,0 -1.5186,-0.15893 -0.68867,-0.15892 -1.1831,-0.51209 -0.47677,-0.35316 -0.75931,-0.91822 -0.26487,-0.56507 -0.26487,-1.395 0,-0.79462 0.30019,-1.34202 0.31785,-0.54741 0.84759,-0.88291 0.52975,-0.35317 1.21842,-0.49443 0.70633,-0.15893 1.46563,-0.15893 0.35317,0 0.74165,0.053 0.38848,0.0353 0.82993,0.14126 v -0.35316 q 0,-0.37082 -0.0883,-0.70633 -0.0883,-0.3355 -0.31785,-0.58272 -0.2119,-0.26487 -0.58272,-0.40614 -0.35316,-0.14126 -0.90057,-0.14126 -0.74164,0 -1.35968,0.10595 -0.61803,0.10595 -1.00652,0.24721 l -0.26487,-1.7305 q 0.40614,-0.14127 1.1831,-0.28253 0.77696,-0.14127 1.65987,-0.14127 z"
         id="path28" /><path
         d="m 164.54335,364.37295 q -0.40614,1.55392 -0.88291,3.03721 -0.45911,1.46563 -0.91823,2.77234 h -1.74816 q -0.35316,-0.81228 -0.74164,-1.85412 -0.38848,-1.04183 -0.77696,-2.22493 -0.38848,-1.1831 -0.77697,-2.48981 -0.38848,-1.3067 -0.7593,-2.66638 h 2.26025 q 0.15893,0.74164 0.37082,1.60689 0.2119,0.8476 0.44146,1.74816 0.22956,0.88291 0.47677,1.73051 0.24722,0.84759 0.49443,1.55392 0.26487,-0.81228 0.51209,-1.67753 0.26487,-0.86525 0.49443,-1.7305 0.22955,-0.86525 0.42379,-1.67753 0.2119,-0.82994 0.37083,-1.55392 h 1.64221 q 0.15892,0.72398 0.35316,1.55392 0.19424,0.81228 0.40614,1.67753 0.22956,0.86525 0.47677,1.7305 0.26488,0.86525 0.52975,1.67753 0.22956,-0.70633 0.47677,-1.55392 0.24721,-0.8476 0.47677,-1.73051 0.24722,-0.90056 0.45911,-1.74816 0.2119,-0.86525 0.37083,-1.60689 h 2.20727 q -0.37082,1.35968 -0.7593,2.66638 -0.38848,1.30671 -0.77696,2.48981 -0.38848,1.1831 -0.77696,2.22493 -0.38848,1.04184 -0.7593,1.85412 h -1.73051 q -0.45911,-1.30671 -0.95354,-2.77234 -0.47677,-1.48329 -0.88291,-3.03721 z m 11.51316,4.3086 q 0.98886,0 1.50094,-0.10595 v -2.3662 q -0.17658,-0.053 -0.51208,-0.10595 -0.33551,-0.053 -0.74165,-0.053 -0.35316,0 -0.72399,0.053 -0.35316,0.053 -0.65335,0.19424 -0.28253,0.14127 -0.45911,0.40614 -0.17658,0.24721 -0.17658,0.6357 0,0.7593 0.47677,1.05949 0.47677,0.28253 1.28905,0.28253 z m -0.17659,-7.96385 q 1.0595,0 1.78348,0.26487 0.72399,0.26488 1.14779,0.74165 0.44145,0.47677 0.61803,1.16544 0.19424,0.67101 0.19424,1.48329 v 5.59765 q -0.49443,0.10595 -1.50094,0.24721 -0.98886,0.15893 -2.2426,0.15893 -0.82993,0 -1.5186,-0.15893 -0.68867,-0.15892 -1.1831,-0.51209 -0.47677,-0.35316 -0.7593,-0.91822 -0.26488,-0.56507 -0.26488,-1.395 0,-0.79462 0.30019,-1.34202 0.31785,-0.54741 0.8476,-0.88291 0.52974,-0.35317 1.21841,-0.49443 0.70633,-0.15893 1.46563,-0.15893 0.35317,0 0.74165,0.053 0.38848,0.0353 0.82993,0.14126 v -0.35316 q 0,-0.37082 -0.0883,-0.70633 -0.0883,-0.3355 -0.31785,-0.58272 -0.21189,-0.26487 -0.58272,-0.40614 -0.35316,-0.14126 -0.90056,-0.14126 -0.74165,0 -1.35969,0.10595 -0.61803,0.10595 -1.00651,0.24721 l -0.26488,-1.7305 q 0.40614,-0.14127 1.1831,-0.28253 0.77696,-0.14127 1.65987,-0.14127 z m 13.66745,0.22956 q -1.43031,5.26214 -3.31974,9.53542 -0.35317,0.79462 -0.72399,1.35969 -0.37082,0.56506 -0.82993,0.93588 -0.45912,0.37082 -1.02418,0.52975 -0.56506,0.17658 -1.30671,0.17658 -0.49443,0 -0.98886,-0.10595 -0.47677,-0.10595 -0.72398,-0.22956 l 0.38848,-1.71284 q 0.63569,0.24721 1.25373,0.24721 0.82994,0 1.28905,-0.40614 0.47677,-0.38848 0.82994,-1.21841 -1.00652,-1.9424 -1.94241,-4.23797 -0.91822,-2.29557 -1.64221,-4.87366 h 2.27791 q 0.17658,0.74164 0.4238,1.60689 0.26487,0.86525 0.56506,1.76582 0.30019,0.88291 0.63569,1.76582 0.33551,0.88291 0.67101,1.64222 0.56507,-1.57158 1.0595,-3.3374 0.49443,-1.78348 0.90056,-3.44335 z"
         id="path33" /></g></g></svg>
