<?xml version="1.0" encoding="UTF-8" standalone="no"?>
<!-- Created with Inkscape (http://www.inkscape.org/) -->

<svg
   width="132.94365mm"
   height="44.221172mm"
   viewBox="0 0 132.94365 44.221172"
   version="1.1"
   id="svg1"
   xml:space="preserve"
   xmlns="http://www.w3.org/2000/svg"
   xmlns:svg="http://www.w3.org/2000/svg"><defs
     id="defs1" /><g
     id="layer1"
     transform="translate(104.16212,-343.50084)"><rect
       style="fill:#1a1a1a;fill-opacity:1;stroke-width:1.05833;stroke-linecap:round;stroke-linejoin:round"
       id="rect10"
       width="132.94365"
       height="44.221172"
       x="-104.16212"
       y="343.50082" /><g
       id="g15"
       transform="matrix(0.65324791,0,0,0.65324791,-44.914549,232.65955)"
       style="stroke-width:1.53081"><path
         style="fill:#ffc9c9;fill-opacity:1;stroke-width:1.6201;stroke-linecap:round;stroke-linejoin:round"
         d="m -49.933775,205.82288 c -0.368824,-0.0263 -0.749162,0.0535 -1.093644,0.25205 -0.918676,0.52931 -1.233951,1.70331 -0.704532,2.62194 0.529325,0.91867 1.702839,1.23394 2.62146,0.70453 0.918694,-0.52933 1.234428,-1.70329 0.705002,-2.62193 -0.330829,-0.57418 -0.913581,-0.91265 -1.528286,-0.95659 z"
         id="path10" /><path
         style="fill:#fff49f;fill-opacity:1;stroke-width:1.6201;stroke-linecap:round;stroke-linejoin:round"
         d="m -57.928175,191.94908 c -0.368771,-0.0263 -0.749216,0.0536 -1.093644,0.25207 -0.918522,0.5292 -1.23411,1.70287 -0.705002,2.62145 0.529318,0.91868 1.70284,1.23442 2.621461,0.705 0.918685,-0.52933 1.234418,-1.70329 0.705002,-2.62192 -0.330915,-0.57401 -0.9132,-0.91272 -1.527817,-0.9566 z"
         id="path13" /><path
         style="fill:#ffc9c9;fill-opacity:1;stroke-width:1.6201;stroke-linecap:round;stroke-linejoin:round"
         d="m -35.63942,182.92488 -17.2655,9.94935 c 0.306066,1.59706 -0.144377,3.24592 -1.220377,4.46516 l 3.029349,5.25747 c 2.207119,-0.44249 4.45082,0.57027 5.578994,2.5182 1.448666,2.51401 0.585322,5.72663 -1.928663,7.17535 -1.939135,1.11112 -4.369254,0.87381 -6.056818,-0.59141 l -25.964902,14.96227 h 13.651253 l 30.176664,-8.00455 z"
         id="path14" /><path
         style="fill:#fff49f;fill-opacity:1;stroke-width:1.78367;stroke-linecap:round;stroke-linejoin:round"
         d="m -68.520365,107.77175 v 43.58542 l 29.390454,-16.93643 c -0.32655,-1.71958 0.143166,-3.49459 1.277441,-4.82762 l -3.373437,-5.8539 c -2.402934,0.44126 -4.824149,-0.67522 -6.049244,-2.78898 -1.594916,-2.76784 -0.643899,-6.30428 2.123902,-7.89926 2.134754,-1.22322 4.809489,-0.96192 6.667293,0.65112 l 18.181319,-10.47688 -43.671198,0 a 4.5465296,4.5465296 135 0 0 -4.54653,4.54653 z m 9.944095,17.8118 c 3.194482,3e-5 5.784114,2.58966 5.784144,5.78414 -2.4e-5,3.19449 -2.589658,5.78412 -5.784144,5.78415 -3.194485,-3e-5 -5.784119,-2.58966 -5.784143,-5.78415 3e-5,-3.19448 2.589662,-5.78411 5.784143,-5.78414 z"
         id="path15"
         transform="matrix(0.90829662,0,0,0.90829662,-19.675967,86.628311)" /></g><text
       xml:space="preserve"
       style="font-weight:500;font-size:17.6582px;font-family:'Ubuntu Nerd Font';-inkscape-font-specification:'Ubuntu Nerd Font Medium';text-align:center;letter-spacing:0px;text-anchor:middle;fill:#ffc9c9;fill-opacity:1;stroke-width:1.05833;stroke-linecap:round;stroke-linejoin:round"
       x="-20.333048"
       y="370.81174"
       id="text16"><tspan
         id="tspan16"
         style="fill:#ffc9c9;fill-opacity:1;stroke-width:1.05833"
         x="-20.333048"
         y="370.81174">mech<tspan
   style="fill:#ffc9c9;fill-opacity:1"
   id="tspan18">a</tspan>way</tspan></text></g></svg>
